<mxfile host="app.diagrams.net" modified="2023-10-18T14:47:00.000Z" agent="Mozilla/5.0 (Windows NT 10.0; Win64; x64) AppleWebKit/537.36 (KHTML, like Gecko) Chrome/117.0.0.0 Safari/537.36" etag="IQqe1rlNF4MMMHnT8xVe" version="22.0.3" type="github">
  <diagram id="C5RBs43oDa-KdzZeNtuy-1" name="Page-1">
    <mxGraphModel dx="792" dy="726" grid="1" gridSize="10" guides="1" tooltips="1" connect="1" arrows="1" fold="1" page="1" pageScale="1" pageWidth="827" pageHeight="1169" math="0" shadow="0">
      <root>
        <mxCell id="WIyWlLk6GJQsqaUBKTNV-1" />
        <mxCell id="uvkjri6FY9MWjZu6di9B-1" value="" style="strokeWidth=2;html=1;shape=mxgraph.flowchart.start_2;whiteSpace=wrap;" vertex="1" parent="WIyWlLk6GJQsqaUBKTNV-1">
          <mxGeometry x="120" y="20" width="30" height="30" as="geometry" />
        </mxCell>
        <mxCell id="uvkjri6FY9MWjZu6di9B-2" value="" style="strokeWidth=2;html=1;shape=mxgraph.flowchart.terminator;whiteSpace=wrap;" vertex="1" parent="WIyWlLk6GJQsqaUBKTNV-1">
          <mxGeometry x="730" y="650" width="65" height="40" as="geometry" />
        </mxCell>
        <mxCell id="uvkjri6FY9MWjZu6di9B-3" value="" style="edgeStyle=orthogonalEdgeStyle;rounded=0;orthogonalLoop=1;jettySize=auto;html=1;" edge="1" parent="WIyWlLk6GJQsqaUBKTNV-1" source="uvkjri6FY9MWjZu6di9B-1" target="uvkjri6FY9MWjZu6di9B-4">
          <mxGeometry relative="1" as="geometry" />
        </mxCell>
        <mxCell id="uvkjri6FY9MWjZu6di9B-4" value="String avaliacao = new String(\"\");" style="html=1;rounded=1;arcSize=11;" vertex="1" parent="WIyWlLk6GJQsqaUBKTNV-1">
          <mxGeometry x="200" y="20" width="120" height="60" as="geometry" />
        </mxCell>
        <mxCell id="uvkjri6FY9MWjZu6di9B-5" value="" style="edgeStyle=orthogonalEdgeStyle;rounded=0;orthogonalLoop=1;jettySize=auto;html=1;" edge="1" parent="WIyWlLk6GJQsqaUBKTNV-1" source="uvkjri6FY9MWjZu6di9B-4" target="uvkjri6FY9MWjZu6di9B-6">
          <mxGeometry relative="1" as="geometry" />
        </mxCell>
        <mxCell id="uvkjri6FY9MWjZu6di9B-6" value="float nota1 = 0;" style="html=1;rounded=1;arcSize=11;" vertex="1" parent="WIyWlLk6GJQsqaUBKTNV-1">
          <mxGeometry x="350" y="20" width="120" height="60" as="geometry" />
        </mxCell>
        <mxCell id="uvkjri6FY9MWjZu6di9B-7" value="" style="edgeStyle=orthogonalEdgeStyle;rounded=0;orthogonal
        </mxCell>
      </root>
    </mxGraphModel>
  </diagram>
</mxfile>

